<svg xmlns="http://www.w3.org/2000/svg" xmlns:xlink="http://www.w3.org/1999/xlink" width="18" height="18" viewBox="0 0 18 18">
  <defs>
    <clipPath id="clip-path">
      <rect id="Rectangle_10935" data-name="Rectangle 10935" width="18" height="18" transform="translate(3566 3049)" fill="none" stroke="#707070" stroke-width="1"/>
    </clipPath>
  </defs>
  <g id="Mask_Group_6" data-name="Mask Group 6" transform="translate(-3566 -3049)" clip-path="url(#clip-path)">
    <g id="Group_46099" data-name="Group 46099" transform="translate(2983.687 2437.836)">
      <path id="Path_31311" data-name="Path 31311" d="M14.8,10.928a6.57,6.57,0,0,0,.974-.453,1.507,1.507,0,0,0,.64-1.263c.009-.31.012-.621.018-.932A1.524,1.524,0,0,0,15,6.638c-.031,0-.062-.01-.147-.023,0-.456,0-.912,0-1.367a1.223,1.223,0,0,0-1.105-1.3.7.7,0,0,1-.308-.173Q11.543,2.078,9.659.377A1.147,1.147,0,0,0,8.159.2C7.477.567,6.794.936,6.117,1.314A.308.308,0,0,1,5.74,1.3c-.207-.146-.428-.27-.644-.4a1.175,1.175,0,0,0-1.671.361Q2.6,2.505,1.8,3.766a.433.433,0,0,1-.415.224A1.241,1.241,0,0,0,.023,5.34Q-.064,8.714.177,12.08c.024.334.052.668.09,1A1.244,1.244,0,0,0,1.34,14.195c.608.07,1.221.1,1.833.132a99.518,99.518,0,0,0,10.123,0,1.292,1.292,0,0,0,1.385-1.363c.029-.391.046-.783.068-1.175.018-.309.035-.618.048-.859m-.744-4.294c-.533,0-1.056-.011-1.578,0a1.5,1.5,0,0,0-1.343.843,4.589,4.589,0,0,0-.024,2.569,1.493,1.493,0,0,0,1.436.845H14a.9.9,0,0,1,0,.1c-.034.629-.067,1.257-.1,1.886-.03.5-.17.644-.682.662-1.217.042-2.435.089-3.653.112-2.642.049-5.281-.035-7.917-.206-.407-.026-.576-.179-.616-.584s-.06-.782-.09-1.173a63.675,63.675,0,0,1-.13-6.447.438.438,0,0,1,.478-.472c.482-.016.964-.037,1.446-.042,2.158-.022,4.317-.05,6.475-.054,1.447,0,2.894.032,4.341.051.281,0,.486.123.495.34.02.512.007,1.025.007,1.565m-.436,3.414v.039c-.18,0-.359,0-.539,0s-.359.018-.538.02a.728.728,0,0,1-.8-.781c0-.375,0-.751.01-1.127a.764.764,0,0,1,.8-.782q1.163-.007,2.327,0a.739.739,0,0,1,.777.812c0,.294-.012.588-.017.882a.856.856,0,0,1-.885.93c-.374.018-.75,0-1.125,0M6.715,1.9c.062-.043.1-.078.153-.1.559-.305,1.122-.6,1.677-.916a.446.446,0,0,1,.593.078c1.007.921,2.023,1.834,3.035,2.749l.2.188c-.6,0-1.167-.025-1.727.007a2.122,2.122,0,0,1-1.369-.39c-.833-.559-1.7-1.071-2.567-1.613M8.333,3.845l-.018.067H2.643c.033-.056.063-.11.1-.163q.647-1,1.3-1.993c.21-.322.382-.359.712-.153L8.138,3.713c.067.041.13.088.195.132" transform="translate(583.27 612.818)" fill="#666e91"/>
      <path id="Path_31311_-_Outline" data-name="Path 31311 - Outline" d="M8.216,14.555c-1.673,0-3.372-.043-5.048-.128-.6-.03-1.223-.062-1.84-.133a1.337,1.337,0,0,1-1.161-1.2c-.033-.3-.062-.616-.09-1-.161-2.226-.212-4.5-.154-6.749A1.339,1.339,0,0,1,1.382,3.89a.336.336,0,0,0,.331-.177c.5-.795,1.037-1.616,1.627-2.51A1.284,1.284,0,0,1,4.414.592a1.41,1.41,0,0,1,.735.219l.183.111c.155.093.315.189.466.3a.229.229,0,0,0,.135.054.286.286,0,0,0,.135-.045C6.763.839,7.479.452,8.112.111A1.522,1.522,0,0,1,8.832-.1a1.318,1.318,0,0,1,.894.4L10.4.91c1.015.914,2.065,1.859,3.1,2.786a.591.591,0,0,0,.26.149,1.315,1.315,0,0,1,1.187,1.4c0,.315,0,.636,0,.946q0,.169,0,.337l.058.009A1.631,1.631,0,0,1,16.53,8.282c0,.125,0,.251-.007.376,0,.182-.006.371-.012.557a1.608,1.608,0,0,1-.684,1.343,3.4,3.4,0,0,1-.651.319c-.092.037-.187.076-.283.119l-.045.8q-.01.18-.019.361c-.014.267-.028.544-.049.816A1.4,1.4,0,0,1,13.3,14.424C11.616,14.511,9.9,14.555,8.216,14.555ZM4.414.792a1.074,1.074,0,0,0-.906.521c-.59.893-1.121,1.713-1.626,2.507a.53.53,0,0,1-.5.27A1.147,1.147,0,0,0,.123,5.343C.065,7.589.116,9.853.277,12.072c.028.387.056.7.089,1A1.138,1.138,0,0,0,1.351,14.1c.61.07,1.229.1,1.827.132,1.673.085,3.368.127,5.038.127,1.685,0,3.393-.044,5.075-.13a1.2,1.2,0,0,0,1.29-1.27c.02-.27.034-.545.048-.811q.009-.181.019-.362l.052-.92.055-.025c.12-.054.235-.1.346-.146a3.257,3.257,0,0,0,.613-.3,1.4,1.4,0,0,0,.6-1.184c.005-.184.008-.372.011-.554,0-.126,0-.251.007-.377a1.426,1.426,0,0,0-1.346-1.54l-.076-.011-.076-.012L14.748,6.7V6.615q0-.212,0-.423c0-.309,0-.629,0-.943a1.123,1.123,0,0,0-1.024-1.207.794.794,0,0,1-.356-.2c-1.035-.927-2.085-1.872-3.1-2.786L9.592.451A1.133,1.133,0,0,0,8.832.1a1.331,1.331,0,0,0-.625.187C7.575.628,6.859,1.014,6.165,1.4a.4.4,0,0,1-.483-.02c-.145-.1-.3-.2-.454-.287L5.043.982A1.21,1.21,0,0,0,4.414.792ZM8.051,13.769c-2.032,0-4.129-.072-6.409-.22a.652.652,0,0,1-.709-.674C.9,12.6.885,12.323.867,12.053c-.008-.118-.016-.236-.025-.354a63.383,63.383,0,0,1-.13-6.457.536.536,0,0,1,.574-.569l.307-.011c.374-.013.76-.027,1.141-.031l1.314-.014c1.692-.018,3.441-.037,5.162-.04h.148c.981,0,1.979.016,2.943.032l1.251.019c.35,0,.583.176.593.436.015.365.012.724.009,1.1,0,.153,0,.308,0,.465v.1h-.1l-.49,0-.481,0c-.233,0-.426,0-.605.007a1.4,1.4,0,0,0-1.257.79A4.5,4.5,0,0,0,11.2,10a1.387,1.387,0,0,0,1.346.791H14.1l0,.1c0,.006,0,.013,0,.021a.675.675,0,0,1,0,.092l-.019.354c-.027.5-.055,1.022-.085,1.533-.033.559-.215.736-.779.756l-.571.02c-1.01.036-2.055.073-3.083.092C9.07,13.764,8.56,13.769,8.051,13.769ZM9.359,4.778H9.211c-1.72,0-3.469.022-5.161.04l-1.314.014c-.378,0-.764.018-1.136.031l-.307.011c-.257.009-.374.124-.381.375a63.186,63.186,0,0,0,.129,6.437c.009.118.017.237.025.355.018.268.037.545.064.816.035.351.162.471.523.494,2.277.148,4.369.22,6.4.22.508,0,1.016,0,1.512-.014,1.027-.019,2.07-.056,3.08-.092l.571-.02c.46-.016.559-.111.586-.568.03-.51.058-1.029.085-1.531l.019-.35H12.545a1.591,1.591,0,0,1-1.525-.9,4.6,4.6,0,0,1,.025-2.663,1.6,1.6,0,0,1,1.428-.9c.181,0,.375-.007.61-.007.289,0,.578,0,.871,0q0-.185,0-.366c0-.378.006-.734-.009-1.095-.009-.222-.305-.243-.4-.244L12.3,4.81C11.335,4.794,10.339,4.778,9.359,4.778Zm3.172,5.43a.828.828,0,0,1-.9-.88c0-.342,0-.712.01-1.13a.866.866,0,0,1,.895-.879c.787,0,1.587,0,2.328,0a.873.873,0,0,1,.644.255.917.917,0,0,1,.232.658c0,.175-.006.35-.01.525,0,.119-.005.238-.007.357a.953.953,0,0,1-.98,1.028c-.129.006-.267.009-.434.009l-.349,0-.247,0v.039h-.428l-.208,0c-.08,0-.162.006-.242.009-.1,0-.2.01-.3.01Zm1.021-2.692q-.5,0-1.01,0a.667.667,0,0,0-.7.684c-.01.416-.013.783-.01,1.123a.63.63,0,0,0,.7.681h.009c.1,0,.194-.005.29-.01s.165-.008.248-.01c.126,0,.251,0,.377,0h.064V9.948h.1l.349,0,.347,0c.164,0,.3,0,.424-.009a.755.755,0,0,0,.79-.831c0-.119,0-.239.007-.358,0-.174.008-.349.01-.523a.723.723,0,0,0-.177-.518.679.679,0,0,0-.5-.193C14.444,7.518,14,7.516,13.552,7.516Zm-5.159-3.5H2.467l.09-.151.03-.052c.023-.039.045-.077.069-.114l.116-.179Q3.361,2.609,3.952,1.7a.575.575,0,0,1,.456-.326.756.756,0,0,1,.393.143L8.191,3.628c.048.03.093.062.138.093l.061.042.058.04Zm-5.574-.2h5.29L8.086,3.8,4.7,1.688a.591.591,0,0,0-.287-.113c-.067,0-.154.028-.289.235q-.591.906-1.179,1.814L2.824,3.8Zm7.693.194A2.221,2.221,0,0,1,9.226,3.6c-.586-.394-1.2-.772-1.8-1.138q-.382-.235-.767-.473L6.533,1.9l.126-.086.056-.04a.983.983,0,0,1,.106-.07l.551-.3C7.74,1.208,8.123,1,8.5.792A.623.623,0,0,1,8.8.7a.587.587,0,0,1,.4.183C9.943,1.559,10.7,2.241,11.43,2.9l.81.731.128.118.266.245h-.257c-.187,0-.371,0-.55,0s-.345,0-.514,0c-.255,0-.464.005-.657.016C10.608,4,10.559,4.006,10.512,4.006ZM6.9,1.894l.637.393c.6.367,1.215.747,1.8,1.142a2.021,2.021,0,0,0,1.307.373c.2-.011.41-.017.669-.017.17,0,.338,0,.516,0l.289,0-.014-.013-.81-.731c-.731-.66-1.487-1.342-2.226-2.019A.4.4,0,0,0,8.8.9a.432.432,0,0,0-.209.066c-.374.211-.757.418-1.128.618l-.55.3Z" transform="translate(583.27 612.818)" fill="#666e91"/>
      <path id="Path_31312" data-name="Path 31312" d="M55.782,156.277a.577.577,0,0,0,.585-.566.545.545,0,0,0-.555-.533.563.563,0,0,0-.566.553.531.531,0,0,0,.536.546" transform="translate(540.412 465.845)" fill="#666e91"/>
      <path id="Path_31312_-_Outline" data-name="Path 31312 - Outline" d="M55.786,156.377h-.005a.639.639,0,0,1-.457-.191.632.632,0,0,1-.179-.456.662.662,0,0,1,.666-.652.638.638,0,0,1,.463,1.095A.692.692,0,0,1,55.786,156.377Zm.029-1.1a.464.464,0,0,0-.47.455.434.434,0,0,0,.122.313.441.441,0,0,0,.315.131l0,.1v-.1h0a.491.491,0,0,0,.346-.145.438.438,0,0,0-.317-.754Z" transform="translate(540.412 465.845)" fill="#666e91"/>
    </g>
  </g>
</svg>
