<svg xmlns="http://www.w3.org/2000/svg" xmlns:xlink="http://www.w3.org/1999/xlink" width="66" height="66" viewBox="0 0 66 66">
  <defs>
    <linearGradient id="linear-gradient" x1="0.5" x2="0.5" y2="1" gradientUnits="objectBoundingBox">
      <stop offset="0" stop-color="#f505fe"/>
      <stop offset="1" stop-color="#2bb6e4"/>
    </linearGradient>
  </defs>
  <g id="Group_46055" data-name="Group 46055" transform="translate(-309 -191)">
    <circle id="Ellipse_1768" data-name="Ellipse 1768" cx="33" cy="33" r="33" transform="translate(309 191)" fill="#b0b0db" opacity="0.4"/>
    <g id="Group_45799" data-name="Group 45799" transform="translate(-3 -6)">
      <circle id="Ellipse_1776" data-name="Ellipse 1776" cx="19" cy="19" r="19" transform="translate(326 211)" fill="url(#linear-gradient)"/>
      <g id="Group_45796" data-name="Group 45796">
        <path id="Path_31359" data-name="Path 31359" d="M126.441,209.007a.39.39,0,0,1-.409.227q-3.877-.006-7.753,0c-.278,0-.384-.106-.384-.387v-.833h.126q3.105,0,6.211,0a1.045,1.045,0,0,0,.767-.307,6.38,6.38,0,0,0,1.359-2.005c.026-.058.055-.114.083-.171Z" transform="translate(222.594 25.118)" fill="#fff"/>
        <path id="Path_31360" data-name="Path 31360" d="M126.435,114.12H117.9a.677.677,0,0,1-.008-.072c0-.275,0-.549,0-.824a.3.3,0,0,1,.323-.324c.46,0,.92,0,1.38,0h.124c0-.1,0-.193,0-.287a.3.3,0,1,1,.608,0c0,.091,0,.182,0,.28h1.522c0-.1,0-.189,0-.283a.3.3,0,1,1,.608,0c0,.094,0,.188,0,.288H124c0-.09,0-.184,0-.277a.305.305,0,1,1,.609,0c0,.088,0,.176,0,.281h.109c.44,0,.879.006,1.319,0a.375.375,0,0,1,.4.227Z" transform="translate(222.6 112.906)" fill="#fff"/>
        <path id="Path_31361" data-name="Path 31361" d="M96.667,154.163a8,8,0,0,1-.314,2.041,6.346,6.346,0,0,1-1.379,2.538l-.007.007a.747.747,0,0,1-.656.295c-2.554-.011-5.107-.007-7.661-.006a.332.332,0,0,1-.32-.154.3.3,0,0,1,.053-.372,5.854,5.854,0,0,0,1.606-3.184c.068-.355.087-.719.128-1.078,0-.027.005-.053.009-.087Z" transform="translate(252.355 73.481)" fill="#fff"/>
        <path id="Path_31362" data-name="Path 31362" d="M0,61.947c.052-.389.092-.78.157-1.166a11.317,11.317,0,0,1,1.99-4.709c.042-.059.081-.118.15-.219H.709V54.544H4.4v3.684H3.106v-1.2A9.537,9.537,0,0,0,2.635,67.4a9.534,9.534,0,0,0,5.313,4.509,9.875,9.875,0,0,0,6.989-.209l.5,1.207c-.333.116-.649.235-.971.335a11.032,11.032,0,0,1-2.592.491.9.9,0,0,0-.147.033H10.46a1.313,1.313,0,0,0-.17-.034,9.365,9.365,0,0,1-2.6-.529A11.263,11.263,0,0,1,.18,64.467C.09,64.042.059,63.6,0,63.172V61.947" transform="translate(333.596 167.276)" fill="#fff"/>
        <path id="Path_31363" data-name="Path 31363" d="M132.9,17.919h1.6v1.3h-3.687V15.531h1.3v1.191a9.568,9.568,0,0,0,.4-10.487,9.788,9.788,0,0,0-12.24-4.173l-.49-1.179a10.969,10.969,0,0,1,11.756,2.063,10.633,10.633,0,0,1,3.6,7.192,11.1,11.1,0,0,1-2.231,7.781" transform="translate(220.824 218.63)" fill="#fff"/>
      </g>
    </g>
  </g>
</svg>
