<svg width="18" height="15" viewBox="0 0 18 15" fill="none" xmlns="http://www.w3.org/2000/svg">
<g clip-path="url(#clip0_673_35)">
<rect width="18" height="15" fill="white"/>
<path d="M12.7172 14.1819V12.7173C12.7172 11.9404 12.4085 11.1953 11.8592 10.6459C11.3099 10.0966 10.5648 9.78796 9.78788 9.78796H3.92929C3.1524 9.78796 2.40732 10.0966 1.85797 10.6459C1.30862 11.1953 1 11.9404 1 12.7173V14.1819" stroke="#666E91" stroke-linecap="round" stroke-linejoin="round"/>
<path d="M6.85849 6.85858C8.47629 6.85858 9.78778 5.5471 9.78778 3.92929C9.78778 2.31149 8.47629 1 6.85849 1C5.24069 1 3.9292 2.31149 3.9292 3.92929C3.9292 5.5471 5.24069 6.85858 6.85849 6.85858Z" stroke="#666E91" stroke-linecap="round" stroke-linejoin="round"/>
<path d="M17.1113 14.1818V12.7171C17.1108 12.0681 16.8948 11.4376 16.4971 10.9247C16.0995 10.4117 15.5427 10.0453 14.9143 9.88306" stroke="#666E91" stroke-linecap="round" stroke-linejoin="round"/>
<path d="M11.9849 1.09521C12.615 1.25655 13.1735 1.623 13.5723 2.13681C13.9711 2.65061 14.1876 3.28254 14.1876 3.93297C14.1876 4.58339 13.9711 5.21532 13.5723 5.72913C13.1735 6.24293 12.615 6.60939 11.9849 6.77072" stroke="#666E91" stroke-linecap="round" stroke-linejoin="round"/>
</g>
<defs>
<clipPath id="clip0_673_35">
<rect width="18" height="15" fill="white"/>
</clipPath>
</defs>
</svg>
