<svg id="Group_23609" data-name="Group 23609" xmlns="http://www.w3.org/2000/svg" xmlns:xlink="http://www.w3.org/1999/xlink" width="15.451" height="14" viewBox="0 0 15.451 14">
  <defs>
    <clipPath id="clip-path">
      <rect id="Rectangle_3720" data-name="Rectangle 3720" width="15.451" height="14" fill="#ff5082"/>
    </clipPath>
  </defs>
  <g id="Group_23608" data-name="Group 23608" clip-path="url(#clip-path)">
    <path id="Path_30501" data-name="Path 30501" d="M0,11.915v-.483a5.672,5.672,0,0,1,.341-.94q2.669-4.658,5.365-9.3A2.24,2.24,0,0,1,6.925.144,2.273,2.273,0,0,1,9.737,1.187q2.7,4.651,5.376,9.313a2.209,2.209,0,0,1-.067,2.45A2.256,2.256,0,0,1,13.028,14Q7.714,14,2.4,14c-.09,0-.181,0-.271-.009a2.2,2.2,0,0,1-1.861-1.25A5.415,5.415,0,0,1,0,11.915M8.571,5.238c0-.078.009-.209,0-.338a.847.847,0,0,0-.735-.78.862.862,0,0,0-.9.511,1.391,1.391,0,0,0-.079.695Q6.928,6.537,7,7.748c.027.436.045.873.087,1.308A.6.6,0,0,0,7.72,9.6a.627.627,0,0,0,.635-.548c.019-.149.014-.3.023-.451.063-1.1.127-2.207.193-3.363m-.008,5.847a.854.854,0,0,0-.835-.885.859.859,0,0,0-.016,1.719.845.845,0,0,0,.851-.834" transform="translate(0 0.001)" fill="#ff5082"/>
  </g>
</svg>
