<svg xmlns="http://www.w3.org/2000/svg" xmlns:xlink="http://www.w3.org/1999/xlink" width="29" height="29" viewBox="0 0 29 29">
  <defs>
    <linearGradient id="linear-gradient" x1="0.5" x2="0.5" y2="1" gradientUnits="objectBoundingBox">
      <stop offset="0" stop-color="#584de6"/>
      <stop offset="1" stop-color="#984dff"/>
    </linearGradient>
    <clipPath id="clip-path">
      <rect id="Rectangle_10806" data-name="Rectangle 10806" width="16.524" height="13.24" fill="#fff" stroke="#fff" stroke-width="0.2"/>
    </clipPath>
  </defs>
  <g id="Group_45703" data-name="Group 45703" transform="translate(-130 -121)">
    <circle id="Ellipse_1743" data-name="Ellipse 1743" cx="14.5" cy="14.5" r="14.5" transform="translate(130 121)" fill="url(#linear-gradient)"/>
    <g id="Group_45691" data-name="Group 45691" transform="translate(136.475 129.38)">
      <g id="Group_45690" data-name="Group 45690" clip-path="url(#clip-path)">
        <path id="Path_31306" data-name="Path 31306" d="M1.691,12.738v-1.03c-.132,0-.255,0-.378,0A1.135,1.135,0,0,1,.172,10.571q-.005-4.717,0-9.433A1.144,1.144,0,0,1,1.28,0c.036,0,.072,0,.107,0H15.134a1.15,1.15,0,0,1,1.2.958,1.583,1.583,0,0,1,.018.285q0,4.609,0,9.218a1.15,1.15,0,0,1-1.247,1.247h-.273v1.029h.206c.394,0,.788,0,1.181,0,.19,0,.306.1.3.254s-.115.239-.3.246c-.036,0-.072,0-.107,0H.405c-.042,0-.084,0-.125,0A.261.261,0,0,1,0,12.977a.255.255,0,0,1,.282-.238c.4,0,.8,0,1.2,0h.21m13.133-1.531c.082,0,.136,0,.188,0,.619.057.851-.328.848-.831-.014-3.037-.007-6.075-.007-9.112A.669.669,0,0,0,15.085.5H1.443C.91.5.671.742.671,1.279q0,4.574,0,9.148c0,.054,0,.107,0,.161a.619.619,0,0,0,.481.6,3.118,3.118,0,0,0,.548.006v-.195c0-.471,0-.943,0-1.414,0-.261.081-.341.342-.342q.976,0,1.951,0c.267,0,.347.083.347.358,0,.471,0,.943,0,1.414,0,.062.007.125.01.187h.836v-.22q0-2.354,0-4.708c0-.283.078-.36.363-.36H7.468c.3,0,.367.071.367.37q0,2.354,0,4.708v.21h.854v-.2q0-1.074,0-2.148c0-.275.074-.35.351-.35q.967,0,1.933,0c.283,0,.36.079.36.364q0,1.074,0,2.148v.186h.847v-.247q0-2.641,0-5.281c0-.286.077-.362.36-.362h1.9c.32,0,.384.065.384.389q0,2.641,0,5.281Zm-.512-5.394H12.7v6.915h1.613ZM5.7,12.727H7.318V6.422H5.7Zm3.509,0h1.618V9.006H9.206Zm-6.991,0H3.829V9.747H2.215Zm5.628,0h.832v-1H7.843Zm-3.486,0h.821v-1.01H4.358Zm7.815-1.009h-.827v1h.827Z" transform="translate(0 0)" fill="#fff" stroke="#fff" stroke-width="0.2"/>
        <path id="Path_31307" data-name="Path 31307" d="M44.033,45.326a1.067,1.067,0,0,1,.29-1.363,1.043,1.043,0,0,1,1.264.017,1.055,1.055,0,0,1,.272,1.321c.4.415.8.827,1.2,1.235.239.242.486.476.725.718a.166.166,0,0,0,.227.05.944.944,0,0,1,.862,0,.146.146,0,0,0,.2-.035q.932-.928,1.873-1.848c.087-.084.059-.143.022-.23a1.041,1.041,0,0,1,1.579-1.235,1.041,1.041,0,0,1-.688,1.877,1.108,1.108,0,0,1-.359-.1.16.16,0,0,0-.214.043q-.925.922-1.859,1.837a.16.16,0,0,0-.039.214,1.038,1.038,0,1,1-1.905.011.185.185,0,0,0-.054-.244q-.922-.9-1.836-1.808a.166.166,0,0,0-.227-.049.947.947,0,0,1-.862,0,.146.146,0,0,0-.2.036q-.926.921-1.86,1.835a.173.173,0,0,0-.044.23,1.038,1.038,0,1,1-.534-.544c.073.032.127.065.2-.011.645-.645,1.3-1.286,1.944-1.928a.116.116,0,0,0,.016-.031m.9-1.065a.535.535,0,0,0-.531.537.539.539,0,1,0,1.078,0,.535.535,0,0,0-.547-.539M41.45,48.785a.542.542,0,0,0,.541-.53.542.542,0,1,0-.541.53M52.47,44.8a.534.534,0,0,0-.531-.536.542.542,0,0,0-.549.54.551.551,0,0,0,.535.539.539.539,0,0,0,.545-.543m-4.038,3.988a.543.543,0,0,0,.551-.539.554.554,0,0,0-.535-.54.54.54,0,0,0-.016,1.079" transform="translate(-38.435 -41.622)" fill="#fff" stroke="#fff" stroke-width="0.2"/>
      </g>
    </g>
  </g>
</svg>
